# xmcd CD Database Entry
#
# Track frame offsets:
# 150
# 11167
# 23715
# 39052
# 52915
# 64060
# 75662
# 94847
# 110867
# 128792
#
# Disc length: 1977 seconds
#
# Revision: 1
# Processed by: cddbd v1.4PL0 Copyright (c) Steve Scherf et al.
# Submitted via: tcd 2.0b
#
DISCID=7707b70a
DTITLE=Patty Loveless - If My Heart Had Windows
DYEAR=1900
DGENRE=
TTITLE0=So Good To Be In Love
TTITLE1=Working Man's Hands
TTITLE2=You Saved Me
TTITLE3=If My Heart Had Windows
TTITLE4=A Little Bit In Love
TTITLE5=I Can't Get You Off Of My Mind
TTITLE6=Baby's Gone Blues
TTITLE7=A Little On The Lonely Side
TTITLE8=Fly Away
TTITLE9=Once In A Lifetime
EXTD=
EXTT0=
EXTT1=
EXTT2=
EXTT3=
EXTT4=
EXTT5=
EXTT6=
EXTT7=
EXTT8=
EXTT9=
PLAYORDER=
